<svg xmlns="http://www.w3.org/2000/svg" width="39" height="39" viewBox="0 0 39 39" fill="none">
  <path d="M32.8618 32.8618C25.3442 40.3794 13.1558 40.3794 5.63817 32.8618C-1.87942 25.3442 -1.87942 13.1558 5.63817 5.63819C13.1558 -1.8794 25.3442 -1.8794 32.8618 5.63819C40.3794 13.1558 40.3794 25.3442 32.8618 32.8618ZM30.3869 30.3869C36.5377 24.2362 36.5377 14.2638 30.3869 8.11307C24.2362 1.96231 14.2638 1.96231 8.11305 8.11307C1.96229 14.2638 1.96229 24.2362 8.11305 30.3869C14.2638 36.5377 24.2362 36.5377 30.3869 30.3869ZM16.7751 19.25L13.0628 15.5377C12.3794 14.8543 12.3794 13.7462 13.0628 13.0628C13.7462 12.3794 14.8542 12.3794 15.5377 13.0628L19.25 16.7751L22.9623 13.0628C23.6457 12.3794 24.7537 12.3794 25.4372 13.0628C26.1206 13.7462 26.1206 14.8543 25.4372 15.5377L21.7249 19.25L25.4372 22.9623C26.1206 23.6457 26.1206 24.7538 25.4372 25.4372C24.7537 26.1206 23.6457 26.1206 22.9623 25.4372L19.25 21.7249L15.5377 25.4372C14.8542 26.1206 13.7462 26.1206 13.0628 25.4372C12.3794 24.7538 12.3794 23.6457 13.0628 22.9623L16.7751 19.25Z" fill="#00ADF0"/>
</svg>