<svg width="22" height="22" viewBox="0 0 22 22" fill="none" xmlns="http://www.w3.org/2000/svg">
<path d="M9.625 3.20833C8.61248 3.20833 7.79167 4.02914 7.79167 5.04167V12.375C7.79167 13.3875 8.61248 14.2083 9.625 14.2083H16.9583C17.9709 14.2083 18.7917 13.3875 18.7917 12.375V5.04167C18.7917 4.02914 17.9709 3.20833 16.9583 3.20833H9.625ZM16.0417 16.0417V16.9583C16.0417 18.9834 14.4 20.625 12.375 20.625H5.04167C3.01662 20.625 1.375 18.9834 1.375 16.9583V9.625C1.375 7.59996 3.01662 5.95833 5.04167 5.95833H5.95833V5.04167C5.95833 3.01662 7.59996 1.375 9.625 1.375H16.9583C18.9834 1.375 20.625 3.01662 20.625 5.04167V12.375C20.625 14.4 18.9834 16.0417 16.9583 16.0417H16.0417ZM14.2083 16.0417H9.625C7.59996 16.0417 5.95833 14.4 5.95833 12.375V7.79167H5.04167C4.02914 7.79167 3.20833 8.61248 3.20833 9.625V16.9583C3.20833 17.9709 4.02914 18.7917 5.04167 18.7917H12.375C13.3875 18.7917 14.2083 17.9709 14.2083 16.9583V16.0417Z" fill="#193742"/>
</svg>
