<svg xmlns="http://www.w3.org/2000/svg" width="36" height="36" viewBox="0 0 36 36" fill="none">
  <path d="M16.5 20.8756C12.2434 20.1614 9 16.4595 9 12C9 7.02944 13.0294 3 18 3C22.9706 3 27 7.02944 27 12C27 16.4595 23.7566 20.1614 19.5 20.8756V24H23.25C24.0784 24 24.75 24.6716 24.75 25.5C24.75 26.3284 24.0784 27 23.25 27H19.5V31.5C19.5 32.3284 18.8284 33 18 33C17.1716 33 16.5 32.3284 16.5 31.5V27H12.75C11.9216 27 11.25 26.3284 11.25 25.5C11.25 24.6716 11.9216 24 12.75 24H16.5V20.8756ZM18 18C21.3137 18 24 15.3137 24 12C24 8.68629 21.3137 6 18 6C14.6863 6 12 8.68629 12 12C12 15.3137 14.6863 18 18 18Z" fill="#FF6FF9"/>
</svg>