<?xml version="1.0" encoding="UTF-8"?>
<svg viewBox="0 0 80 91" xmlns="http://www.w3.org/2000/svg">
<path d="m31.308 0.83765c-7.5433 0-13.658 6.0062-13.658 13.415v46.953c0 7.409 6.1151 13.415 13.658 13.415h34.146c7.5433 0 13.658-6.0061 13.658-13.415v-33.538c0-0.8895-0.3597-1.7425-1.0001-2.3715l-23.902-23.476c-0.6403-0.62896-1.5088-0.9823-2.4144-0.9823h-20.488zm-6.8292 13.415c0-3.7045 3.0575-6.7076 6.8292-6.7076h17.073v13.415c0 5.5568 4.5863 10.061 10.244 10.061h13.658v30.184c0 3.7045-3.0576 6.7076-6.8292 6.7076h-34.146c-3.7717 0-6.8292-3.0031-6.8292-6.7076v-46.953zm42.975 10.061-12.244-12.026v8.6721c0 1.8523 1.5288 3.3538 3.4146 3.3538h8.8294zm-6.4149 21.105-10.244-10.061c-1.3334-1.3098-3.4954-1.3098-4.8289 0l-10.244 10.061c-1.3335 1.3097-1.3335 3.4332 0 4.743 1.3334 1.3097 3.4954 1.3097 4.8289 0l4.4147-4.3361v13.703c0 1.8522 1.5288 3.3538 3.4146 3.3538s3.4146-1.5016 3.4146-3.3538v-13.703l4.4147 4.3361c1.3334 1.3097 3.4954 1.3097 4.8289 0 1.3335-1.3098 1.3335-3.4333 0-4.743z" clip-rule="evenodd" fill="#00ADF0" fill-rule="evenodd"/>
<path d="m11.48 71.117v-44.455h-2.593c-4.4183 0-8 3.5817-8 8v47.576c0 4.4183 3.5817 8 8 8h41.008c4.4183 0 8-3.5817 8-8v-1.1209h-36.415c-5.5229 0-10-4.4772-10-10z" fill="#00ADF0"/>
</svg>
