<svg xmlns="http://www.w3.org/2000/svg" width="24" height="24" viewBox="0 0 24 24" fill="none">
  <g clip-path="url(#clip0_3_4718)">
    <path d="M5.13758 14.5092L4.33065 17.5216L1.38136 17.584C0.499949 15.9491 0 14.0787 0 12.0911C0 10.169 0.46744 8.35647 1.29601 6.7605H1.29664L3.92235 7.24188L5.07256 9.85183C4.83182 10.5537 4.70061 11.3071 4.70061 12.0911C4.7007 12.9419 4.85482 13.7571 5.13758 14.5092Z" fill="#555555"/>
    <path d="M22.9793 9.92529C23.1124 10.6265 23.1818 11.3506 23.1818 12.0906C23.1818 12.9205 23.0945 13.7299 22.9283 14.5107C22.3641 17.1677 20.8897 19.4878 18.8473 21.1296L18.8467 21.129L15.5395 20.9602L15.0714 18.0383C16.4266 17.2435 17.4858 15.9997 18.0437 14.5107H11.8457V9.92529H18.1341H22.9793Z" fill="#555555"/>
    <path d="M18.8462 21.1293L18.8468 21.13C16.8605 22.7266 14.3372 23.6819 11.5904 23.6819C7.17632 23.6819 3.33859 21.2147 1.38086 17.5839L5.13708 14.5092C6.11593 17.1215 8.636 18.9812 11.5904 18.9812C12.8603 18.9812 14.05 18.6379 15.0709 18.0386L18.8462 21.1293Z" fill="#555555"/>
    <path d="M18.9902 3.16844L15.2353 6.24257C14.1787 5.58216 12.9298 5.20066 11.5918 5.20066C8.57049 5.20066 6.00328 7.14562 5.07347 9.85169L1.29751 6.76036H1.29688C3.22595 3.04108 7.11207 0.5 11.5918 0.5C14.4042 0.5 16.9828 1.5018 18.9902 3.16844Z" fill="#555555"/>
  </g>
  <defs>
    <clipPath id="clip0_3_4718">
      <rect width="23.1818" height="23.1818" fill="white" transform="translate(0 0.5)"/>
    </clipPath>
  </defs>
</svg>