<svg xmlns="http://www.w3.org/2000/svg" width="42" height="42" viewBox="0 0 42 42" fill="none">
  <path d="M21 40.25C10.3685 40.25 1.75 31.6315 1.75 21C1.75 10.3685 10.3685 1.75 21 1.75C31.6315 1.75 40.25 10.3685 40.25 21C40.25 31.6315 31.6315 40.25 21 40.25ZM21 36.75C29.6985 36.75 36.75 29.6985 36.75 21C36.75 12.3015 29.6985 5.25 21 5.25C12.3015 5.25 5.25 12.3015 5.25 21C5.25 29.6985 12.3015 36.75 21 36.75ZM19.25 19.25V14C19.25 13.0335 20.0335 12.25 21 12.25C21.9665 12.25 22.75 13.0335 22.75 14V19.25H28C28.9665 19.25 29.75 20.0335 29.75 21C29.75 21.9665 28.9665 22.75 28 22.75H22.75V28C22.75 28.9665 21.9665 29.75 21 29.75C20.0335 29.75 19.25 28.9665 19.25 28V22.75H14C13.0335 22.75 12.25 21.9665 12.25 21C12.25 20.0335 13.0335 19.25 14 19.25H19.25Z" fill="#00ADF0"/>
</svg>