<svg width="25" height="23" viewBox="0 0 25 23" fill="none" xmlns="http://www.w3.org/2000/svg">
<path d="M2.52637 7.57894L1.46571 8.6396L0.405045 7.57894L1.46571 6.51828L2.52637 7.57894ZM8.84216 22.9737C8.01373 22.9737 7.34216 22.3021 7.34216 21.4737C7.34216 20.6453 8.01373 19.9737 8.84216 19.9737L8.84216 22.9737ZM7.7815 14.9554L1.46571 8.6396L3.58703 6.51828L9.90282 12.8341L7.7815 14.9554ZM1.46571 6.51828L7.7815 0.202495L9.90282 2.32381L3.58703 8.6396L1.46571 6.51828ZM2.52637 6.07894L15.7895 6.07894L15.7895 9.07894L2.52637 9.07894L2.52637 6.07894ZM15.7895 22.9737L8.84216 22.9737L8.84216 19.9737L15.7895 19.9737L15.7895 22.9737ZM24.2369 14.5263C24.2369 19.1917 20.4549 22.9737 15.7895 22.9737L15.7895 19.9737C18.798 19.9737 21.2369 17.5348 21.2369 14.5263L24.2369 14.5263ZM15.7895 6.07894C20.4549 6.07894 24.2369 9.86095 24.2369 14.5263L21.2369 14.5263C21.2369 11.5178 18.798 9.07894 15.7895 9.07894L15.7895 6.07894Z" fill="#00ADF0"/>
</svg>
