<?xml version="1.0" encoding="UTF-8"?>
<svg fill="none" viewBox="0 0 59 64" xmlns="http://www.w3.org/2000/svg">
<rect x="6" y="40.692" width="13" height="23" rx="4" fill="#00ADF0"/>
<rect x="19" y="33.692" width="13" height="30" rx="4" fill="#00CFF0"/>
<rect x="32" y="26" width="13" height="38" rx="4" fill="#00ADF0"/>
<rect x="45" y="18" width="13" height="46" rx="4" fill="#00CFF0"/>
<path d="m3 11.001 1e-5 43c0 3.866 3.134 7 7 7h46" stroke="#193742" stroke-linecap="round" stroke-linejoin="round" stroke-miterlimit="16" stroke-width="6"/>
<path d="m8.0017 28.189c-0.9999 0.8275-1.1397 2.3088-0.31225 3.3087 0.82744 0.9999 2.3088 1.1397 3.3087 0.3123l-2.9965-3.621zm15.999-10.19 0.6631-2.2545c-0.7494-0.2204-1.5594-0.054-2.1613 0.444l1.4982 1.8105zm8.5 2.5-0.6631 2.2545c0.7146 0.2102 1.4864 0.0692 2.0804-0.38l-1.4173-1.8745zm-21.503 11.31 14.501-12-2.9965-3.621-14.501 12 2.9965 3.621zm12.34-11.556 8.5 2.5 1.3262-4.509-8.5-2.5-1.3262 4.509zm10.58 2.12 20.5-15.5-2.8346-3.749-20.5 15.5 2.8346 3.749z" fill="#193742"/>
</svg>
