<?xml version="1.0" encoding="UTF-8"?>
<svg viewBox="0 0 56 56" xmlns="http://www.w3.org/2000/svg">
<path d="m28 56c-15.464 0-28-12.536-28-28s12.536-28 28-28 28 12.536 28 28-12.536 28-28 28zm0-5.0909c12.652 0 22.909-10.257 22.909-22.909s-10.257-22.909-22.909-22.909-22.909 10.257-22.909 22.909 10.257 22.909 22.909 22.909zm2.5455-38.182v14.028l10.472 8.1447c1.1097 0.8631 1.3096 2.4624 0.4465 3.5721-0.8631 1.1096-2.4623 1.3095-3.572 0.4465l-11.455-8.9091c-0.62-0.4823-0.9827-1.2238-0.9827-2.0093v-15.273c0-1.4058 1.1397-2.5455 2.5455-2.5455s2.5455 1.1397 2.5455 2.5455z" fill="#193742"/>
<path d="m30.546 26.755v-14.028c0-1.4058-1.1396-2.5455-2.5455-2.5455-1.4058 0-2.5454 1.1397-2.5454 2.5455v15.273c0 0.7855 0.3626 1.527 0.9827 2.0093l11.454 8.9091c1.1097 0.8631 2.709 0.6632 3.5721-0.4465 0.863-1.1097 0.6631-2.709-0.4466-3.572l-10.472-8.1448z" fill="#00ADF0"/>
</svg>
