<svg xmlns="http://www.w3.org/2000/svg" width="36" height="36" viewBox="0 0 36 36" fill="none">
  <path d="M19.5 8.12134V15.1245C23.7566 15.8386 27 19.5405 27 24C27 28.9706 22.9706 33 18 33C13.0294 33 9 28.9706 9 24C9 19.5405 12.2434 15.8386 16.5 15.1245V8.12134L12.6967 11.9246C12.1109 12.5104 11.1612 12.5104 10.5754 11.9246C9.98959 11.3389 9.98959 10.3891 10.5754 9.80332L15.8787 4.50002C17.0503 3.32844 18.9497 3.32844 20.1213 4.50002L25.4246 9.80332C26.0104 10.3891 26.0104 11.3389 25.4246 11.9246C24.8388 12.5104 23.8891 12.5104 23.3033 11.9246L19.5 8.12134ZM18 30C21.3137 30 24 27.3137 24 24C24 20.6863 21.3137 18 18 18C14.6863 18 12 20.6863 12 24C12 27.3137 14.6863 30 18 30Z" fill="#5F95FF"/>
</svg>