<?xml version="1.0" encoding="UTF-8"?>
<svg viewBox="0 0 199 53" xmlns="http://www.w3.org/2000/svg">
<path d="m77.231 33.91c-1.4393 0-2.7825-0.2303-4.0299-0.691-1.2282-0.4799-2.2452-1.1613-3.0512-2.0443l2.3028-2.7065c0.4797 0.6143 1.113 1.1325 1.8998 1.5548 0.806 0.4031 1.6983 0.6047 2.677 0.6047 0.5949 0 1.0842-0.0864 1.468-0.2592 0.3838-0.1727 0.5757-0.4415 0.5757-0.8062 0-0.2687-0.0959-0.4798-0.2878-0.6334-0.1919-0.1728-0.5757-0.3167-1.1514-0.4319l-2.015-0.4031c-1.8038-0.3647-3.0895-0.9022-3.8571-1.6124-0.7484-0.7294-1.1227-1.6796-1.1227-2.8505 0-0.787 0.2399-1.5356 0.7197-2.2458 0.4797-0.7294 1.2185-1.3149 2.2164-1.7564 0.9979-0.4606 2.274-0.691 3.8284-0.691 1.4584 0 2.7442 0.2112 3.8572 0.6335 1.113 0.4222 1.9957 1.0365 2.6482 1.8427l-2.3316 2.6489c-0.4605-0.5758-1.0554-1.0269-1.7846-1.3532-0.7293-0.3264-1.4585-0.4895-2.1877-0.4895-0.4606 0-0.854 0.048-1.1802 0.144-0.307 0.0767-0.5373 0.1919-0.6908 0.3455-0.1535 0.1535-0.2303 0.3455-0.2303 0.5758 0 0.2496 0.1151 0.4703 0.3454 0.6623 0.2495 0.1727 0.7005 0.3263 1.3529 0.4606l2.6194 0.5183c1.4777 0.2687 2.5427 0.7582 3.1952 1.4684 0.6524 0.7103 0.9787 1.5644 0.9787 2.5626 0 0.9406-0.2495 1.7851-0.7485 2.5337-0.4989 0.7487-1.2473 1.3437-2.2452 1.7852-0.9979 0.4223-2.2548 0.6334-3.7708 0.6334z" fill="#00adf0"/>
<path d="m91.975 33.91c-0.9787 0-1.8422-0.1631-2.5906-0.4894-0.7292-0.3455-1.3049-0.8926-1.7271-1.6412s-0.6333-1.7276-0.6333-2.9369v-9.6168h4.8935v8.4651c0 0.9214 0.1823 1.5644 0.5469 1.9291s0.8827 0.5471 1.5544 0.5471c0.3454 0 0.6716-0.0576 0.9786-0.1728 0.3071-0.1343 0.5757-0.3263 0.806-0.5758 0.2303-0.2688 0.403-0.6047 0.5181-1.0078 0.1344-0.4223 0.2015-0.9117 0.2015-1.4684v-7.7165h4.8933v14.396h-4.3751l-0.144-2.7065c-0.4605 1.0173-1.1034 1.7755-1.9285 2.2746-0.8252 0.4799-1.8231 0.7198-2.9937 0.7198z" fill="#00adf0"/>
<path d="m105.51 33.622v-14.396h4.317l0.202 3.1097c0.365-1.075 0.902-1.91 1.612-2.505 0.729-0.5951 1.65-0.8926 2.763-0.8926 0.365 0 0.672 0.0288 0.921 0.0864 0.269 0.0576 0.48 0.1344 0.634 0.2303l-0.49 4.031c-0.192-0.0768-0.441-0.1343-0.748-0.1727-0.288-0.0576-0.643-0.0864-1.065-0.0864-0.576 0-1.113 0.1248-1.612 0.3743s-0.902 0.6238-1.209 1.1229c-0.288 0.4799-0.432 1.0941-0.432 1.8427v7.2558h-4.893z" fill="#00adf0"/>
<path d="m127.81 19.226h5.066l-5.181 14.396h-5.843l-5.182-14.396h5.153l2.965 10.97 3.022-10.97z" fill="#00adf0"/>
<path d="m141.93 33.91c-1.592 0-2.974-0.2975-4.145-0.8925-1.151-0.5951-2.043-1.4493-2.677-2.5626-0.633-1.1133-0.949-2.457-0.949-4.031s0.316-2.9176 0.949-4.031c0.634-1.1133 1.516-1.9675 2.649-2.5625 1.151-0.5951 2.466-0.8926 3.943-0.8926 1.516 0 2.802 0.2975 3.857 0.8926 1.075 0.5758 1.891 1.382 2.447 2.4186 0.557 1.0173 0.835 2.1882 0.835 3.5127 0 0.3455-0.01 0.691-0.029 1.0365s-0.048 0.6335-0.086 0.8638h-11.399v-2.6201h9.24l-2.332 0.8926c0-1.1518-0.211-2.0347-0.633-2.649-0.403-0.6142-1.036-0.9213-1.9-0.9213-0.614 0-1.142 0.1439-1.583 0.4318-0.422 0.288-0.748 0.7391-0.979 1.3533-0.211 0.6142-0.316 1.4012-0.316 2.361 0 0.9406 0.124 1.7084 0.374 2.3034 0.249 0.5759 0.604 0.9982 1.065 1.2669 0.46 0.2495 1.017 0.3743 1.669 0.3743 0.73 0 1.305-0.144 1.728-0.4319 0.441-0.2879 0.767-0.691 0.978-1.2093l3.915 1.2957c-0.269 0.8254-0.739 1.526-1.41 2.1019-0.653 0.5566-1.44 0.9789-2.361 1.2668-0.902 0.288-1.852 0.4319-2.85 0.4319z" fill="#00adf0"/>
<path d="m166.13 19.226-5.239 14.396c-0.537 1.5164-1.123 2.7257-1.756 3.6279s-1.382 1.5548-2.245 1.9579c-0.864 0.4031-1.9 0.6046-3.109 0.6046-0.806 0-1.545-0.0863-2.216-0.2591-0.672-0.1727-1.257-0.4127-1.756-0.7198l0.978-3.3112c0.346 0.2496 0.711 0.4223 1.094 0.5183 0.384 0.1152 0.873 0.1728 1.468 0.1728 0.557 0 1.008-0.096 1.353-0.288 0.365-0.1919 0.653-0.5566 0.864-1.0941l0.374-0.8926-1.67-3.9158-4.317-10.797h5.382l2.217 8.206 0.691 3.052 0.806-3.1672 2.216-8.0908h4.865z" fill="#00adf0"/>
<path d="m168.9 28.67c0.902 0 1.602 0.2303 2.101 0.691 0.518 0.4607 0.777 1.1037 0.777 1.9291 0 0.8062-0.259 1.4396-0.777 1.9003-0.499 0.4607-1.199 0.691-2.101 0.691-0.883 0-1.584-0.2303-2.102-0.691s-0.777-1.0941-0.777-1.9003c0-0.8254 0.259-1.4684 0.777-1.9291s1.219-0.691 2.102-0.691z" fill="#00adf0"/>
<path d="m177.85 17.556c-0.998 0-1.727-0.1824-2.188-0.5471-0.441-0.3839-0.662-0.979-0.662-1.7851 0-0.8254 0.221-1.4205 0.662-1.7852 0.461-0.3839 1.19-0.5759 2.188-0.5759 0.979 0 1.698 0.192 2.159 0.5759 0.46 0.3647 0.691 0.9598 0.691 1.7852 0 0.8061-0.231 1.4012-0.691 1.7851-0.461 0.3647-1.18 0.5471-2.159 0.5471zm2.447 1.6699v14.396h-4.894v-14.396h4.894z" fill="#00adf0"/>
<path d="m184.35 33.622v-14.396h4.375l0.259 4.9524-0.547-0.5471c0.192-1.0365 0.528-1.9003 1.008-2.5913 0.499-0.691 1.113-1.2093 1.842-1.5548 0.748-0.3647 1.583-0.5471 2.504-0.5471 0.998 0 1.862 0.192 2.591 0.5759 0.748 0.3839 1.333 0.9501 1.756 1.6987 0.422 0.7487 0.633 1.6892 0.633 2.8217v9.588h-4.894v-8.2923c0-0.9981-0.191-1.6892-0.575-2.0731s-0.873-0.5758-1.468-0.5758c-0.461 0-0.893 0.1151-1.296 0.3455-0.403 0.2111-0.719 0.5566-0.949 1.0365-0.231 0.4799-0.346 1.1229-0.346 1.9291v7.6301h-4.893z" fill="#00adf0"/>
<path d="m0 17.318c0-6.0618 0-9.0927 1.1797-11.408 1.0377-2.0366 2.6935-3.6924 4.7301-4.7301 2.3153-1.1797 5.3462-1.1797 11.408-1.1797h18.039c6.0618 0 9.0927 0 11.408 1.1797 2.0366 1.0377 3.6924 2.6935 4.7301 4.7301 1.1797 2.3153 1.1797 5.3462 1.1797 11.408v18.039c0 6.0618 0 9.0927-1.1797 11.408-1.0377 2.0366-2.6935 3.6924-4.7301 4.7301-2.3153 1.1797-5.3462 1.1797-11.408 1.1797h-18.039c-6.0618 0-9.0927 0-11.408-1.1797-2.0366-1.0377-3.6924-2.6935-4.7301-4.7301-1.1797-2.3153-1.1797-5.3462-1.1797-11.408v-18.039z" fill="#00adf0"/>
<path d="m8.7251 14.538c0-2.7062 2.2261-4.9 4.9721-4.9h26.806c2.746 0 4.9721 2.1938 4.9721 4.9 0 2.7061-2.2261 4.9-4.9721 4.9h-26.806c-2.746 0-4.9721-2.1939-4.9721-4.9z" fill="#fbf9f9"/>
<path d="m16.62 26.338c0-1.5296-1.24-2.7696-2.7696-2.7696s-2.7696 1.24-2.7696 2.7696 1.24 2.7696 2.7696 2.7696 2.7696-1.24 2.7696-2.7696zm-2.7696-4.9c-2.7062 0-4.9 2.1938-4.9 4.9s2.1938 4.9 4.9 4.9 4.9-2.1938 4.9-4.9-2.1938-4.9-4.9-4.9z" clip-rule="evenodd" fill="#fbf9f9" fill-rule="evenodd"/>
<path d="m20.75 26.338c0-2.7062 2.1749-4.9 4.8578-4.9h14.784c2.6829 0 4.8578 2.1938 4.8578 4.9s-2.1749 4.9-4.8578 4.9h-14.784c-2.6829 0-4.8578-2.1938-4.8578-4.9z" fill="#fbf9f9"/>
<path d="m16.62 38.137c0-1.5296-1.24-2.7695-2.7696-2.7695s-2.7696 1.2399-2.7696 2.7695 1.24 2.7696 2.7696 2.7696 2.7696-1.24 2.7696-2.7696zm-2.7696-4.9c-2.7062 0-4.9 2.1938-4.9 4.9s2.1938 4.9 4.9 4.9 4.9-2.1938 4.9-4.9-2.1938-4.9-4.9-4.9z" clip-rule="evenodd" fill="#fbf9f9" fill-rule="evenodd"/>
<path d="m20.75 38.137c0-2.7062 2.1749-4.9 4.8578-4.9h14.784c2.6829 0 4.8578 2.1938 4.8578 4.9s-2.1749 4.9-4.8578 4.9h-14.784c-2.6829 0-4.8578-2.1938-4.8578-4.9z" fill="#fbf9f9"/>
</svg>