<svg width="32" height="32" viewBox="0 0 32 32" fill="none" xmlns="http://www.w3.org/2000/svg">
<path fill-rule="evenodd" clip-rule="evenodd" d="M11.1616 4.14075H21.3125C19.748 3.49624 18.0341 3.14075 16.2371 3.14075C14.4401 3.14075 12.7261 3.49624 11.1616 4.14075ZM29.1148 13.0056L29.265 19.3245C29.465 18.4061 29.5704 17.4524 29.5704 16.4741C29.5704 15.2743 29.4119 14.1116 29.1148 13.0056ZM27.6043 23.4465L23.3395 20.1674C22.5789 19.5825 22.1985 19.2901 21.7587 19.1951C21.6112 19.1632 21.4605 19.1481 21.3096 19.1501C20.8597 19.1561 20.4289 19.3673 19.5674 19.7898L19.5674 19.7898L19.5674 19.7898C19.1056 20.0163 18.8747 20.1295 18.6357 20.1263C18.5557 20.1252 18.4761 20.1145 18.3986 20.0945C18.1672 20.0346 17.9742 19.8646 17.5884 19.5244L14.9133 17.1663C13.6401 16.044 13.0035 15.4828 12.2413 15.4872C11.479 15.4916 10.849 16.0601 9.58878 17.197L4.14795 22.1058C6.27078 26.6549 10.8858 29.8074 16.2371 29.8074C21.045 29.8074 25.2586 27.2626 27.6043 23.4465Z" fill="#00ADF0"/>
<path d="M2.66675 16C2.66675 11.963 2.66675 9.94442 3.30262 8.34383C4.21744 6.04109 6.04115 4.21738 8.34389 3.30256C9.94448 2.66669 11.963 2.66669 16.0001 2.66669V2.66669C20.0371 2.66669 22.0557 2.66669 23.6563 3.30256C25.959 4.21738 27.7827 6.04109 28.6975 8.34383C29.3334 9.94442 29.3334 11.963 29.3334 16V16C29.3334 20.0371 29.3334 22.0556 28.6975 23.6562C27.7827 25.9589 25.959 27.7827 23.6563 28.6975C22.0557 29.3334 20.0371 29.3334 16.0001 29.3334V29.3334C11.963 29.3334 9.94448 29.3334 8.34389 28.6975C6.04115 27.7827 4.21744 25.9589 3.30262 23.6562C2.66675 22.0556 2.66675 20.0371 2.66675 16V16Z" stroke="#00ADF0" stroke-width="3" stroke-linejoin="round"/>
<circle cx="19.9999" cy="12" r="2.66667" fill="#00ADF0"/>
</svg>
